# xmcd
#
# Track frame offsets: 
#        150
#        14992
#        32587
#        43672
#        57332
#        72110
#        88637
#        100757
#        118430
#        129892
#        141302
#        159495
#
# Disc length: 2286 seconds
#
# Revision: 2
# Processed by: cddbd v1.5.2PL0 Copyright (c) Steve Scherf et al.
# Submitted via: ExactAudioCopy v0.99pb4
#
DISCID=a808ec0c
DTITLE=The Seldom Scene - Act Four
DYEAR=1995
DGENRE=Bluegrass
TTITLE0=Something In the Wind
TTITLE1=Girl In The Night
TTITLE2=Ride Me Down Easy
TTITLE3=Leaving Harlan
TTITLE4=Tennessee Blues
TTITLE5=Life Is Like A Mountain Railroad
TTITLE6=I Don't Know You
TTITLE7=California Blues
TTITLE8=San Antonio  Rose
TTITLE9=Daddy Was A Railroad Man
TTITLE10=Walking The Blues
TTITLE11=The Weary Heart You Stole Away
EXTD=
EXTT0=
EXTT1=
EXTT2=
EXTT3=
EXTT4=
EXTT5=
EXTT6=
EXTT7=
EXTT8=
EXTT9=
EXTT10=
EXTT11=
PLAYORDER=
